<svg width="103" height="102" viewBox="0 0 103 102" fill="none" xmlns="http://www.w3.org/2000/svg">
<mask id="mask0_2659_10394" style="mask-type:alpha" maskUnits="userSpaceOnUse" x="0" y="0" width="103" height="102">
<rect x="0.5" width="102" height="102" fill="#FD1111"/>
</mask>
<g mask="url(#mask0_2659_10394)">
<circle cx="51.5" cy="51" r="48" fill="#FFFBEE"/>
<path d="M36.4709 22H65.5291C69.0701 22 70.8406 22 72.2685 22.5529C74.9763 23.6012 77.1021 26.0364 78.0174 29.1382C78.5 30.7739 78.5 32.802 78.5 36.8582V84.4723C78.5 87.3903 75.4903 88.9385 73.5864 86.9999C72.4678 85.8609 70.7822 85.8609 69.6636 86.9999L68.1875 88.5029C66.2271 90.499 63.2729 90.499 61.3125 88.5029C59.3521 86.5068 56.3979 86.5068 54.4375 88.5029C52.4771 90.499 49.5229 90.499 47.5625 88.5029C45.6021 86.5068 42.6479 86.5068 40.6875 88.5029C38.7271 90.499 35.7729 90.499 33.8125 88.5029L32.3364 86.9999C31.2178 85.8609 29.5322 85.8609 28.4136 86.9999C26.5097 88.9385 23.5 87.3903 23.5 84.4723V36.8582C23.5 32.802 23.5 30.7739 23.9826 29.1382C24.8979 26.0364 27.0237 23.6012 29.7315 22.5529C31.1594 22 32.9299 22 36.4709 22Z" fill="#FFC107"/>
<path d="M39.4286 51C38.3635 51 37.5 52.1193 37.5 53.5C37.5 54.8807 38.3635 56 39.4286 56H62.5714C63.6365 56 64.5 54.8807 64.5 53.5C64.5 52.1193 63.6365 51 62.5714 51H39.4286Z" fill="#FDFDFD"/>
<path d="M39.4286 40C38.3635 40 37.5 41.1193 37.5 42.5C37.5 43.8807 38.3635 45 39.4286 45H62.5714C63.6365 45 64.5 43.8807 64.5 42.5C64.5 41.1193 63.6365 40 62.5714 40H39.4286Z" fill="#FDFDFD"/>
<path d="M86.5 74C86.5 83.3888 78.8888 91 69.5 91C60.1112 91 52.5 83.3888 52.5 74C52.5 64.6112 60.1112 57 69.5 57C78.8888 57 86.5 64.6112 86.5 74Z" fill="url(#paint0_linear_2659_10394)"/>
<path d="M75.5001 68.0001L63.5001 80M63.5001 68L75.5 80" stroke="white" stroke-width="3.5" stroke-linecap="round"/>
</g>
<defs>
<linearGradient id="paint0_linear_2659_10394" x1="69.5" y1="57" x2="69.5" y2="91" gradientUnits="userSpaceOnUse">
<stop stop-color="#E5001D"/>
<stop offset="1" stop-color="#C71B31"/>
</linearGradient>
</defs>
</svg>
